<?xml version="1.0" encoding="UTF-8" standalone="no"?><!DOCTYPE svg PUBLIC "-//W3C//DTD SVG 1.1//EN" "http://www.w3.org/Graphics/SVG/1.1/DTD/svg11.dtd"><svg width="100%" height="100%" viewBox="0 0 2048 2048" version="1.1" xmlns="http://www.w3.org/2000/svg" xmlns:xlink="http://www.w3.org/1999/xlink" xml:space="preserve" xmlns:serif="http://www.serif.com/" style="fill-rule:evenodd;clip-rule:evenodd;stroke-linejoin:round;stroke-miterlimit:2;"><g id="Logo"><path d="M592.994,1365.63c27.843,0 53.736,-5.847 77.681,-17.541c23.945,-11.694 45.105,-27.564 63.482,-47.611c18.376,-20.047 32.854,-43.435 43.434,-70.164c10.581,-26.729 15.871,-55.129 15.871,-85.199l280.655,0c0,66.823 -11.694,130.304 -35.082,190.445c-23.388,60.14 -57.913,114.155 -103.575,162.045c-45.662,47.889 -97.728,84.642 -156.198,110.257c-58.47,25.615 -120.559,38.423 -186.268,38.423l-1.671,0c-65.709,0 -127.52,-12.808 -185.433,-38.423c-57.913,-25.615 -110.257,-62.368 -157.033,-110.257c-43.435,-46.776 -77.124,-99.399 -101.069,-157.869c-23.945,-58.47 -36.474,-120.002 -37.588,-184.598l0,-257.267c1.114,-66.822 13.364,-129.747 36.752,-188.774c23.388,-59.027 57.357,-111.928 101.905,-158.704c46.776,-47.889 99.12,-84.642 157.033,-110.257c57.913,-25.615 119.724,-38.423 185.433,-38.423l1.671,0c65.709,0 127.798,12.808 186.268,38.423c58.47,25.615 110.536,62.368 156.198,110.257c45.662,47.89 80.187,101.905 103.575,162.045c23.388,60.141 35.082,123.622 35.082,190.445l-280.655,0c0,-30.07 -5.29,-58.47 -15.871,-85.199c-10.58,-26.729 -25.058,-50.117 -43.434,-70.164c-18.377,-20.047 -39.537,-35.917 -63.482,-47.611c-23.945,-11.694 -49.838,-17.541 -77.681,-17.541c-27.843,0 -54.015,5.847 -78.517,17.541c-24.502,11.694 -45.94,27.564 -64.317,47.611c-18.376,20.047 -32.854,43.435 -43.434,70.164c-10.581,26.729 -15.871,55.129 -15.871,85.199l0,242.232c0,30.07 5.29,58.47 15.871,85.199c10.58,26.729 25.058,50.117 43.434,70.164c18.377,20.047 39.815,35.917 64.317,47.611c24.502,11.694 50.674,17.541 78.517,17.541Z" style="fill:#ff3a00;fill-rule:nonzero;"/><path d="M1937.8,1258.71c0,42.321 -5.569,80.744 -16.706,115.269c-12.25,38.98 -30.07,75.175 -53.458,108.587c-23.388,33.411 -51.23,62.089 -83.528,86.034c-32.298,23.945 -67.936,42.599 -106.916,55.964c-38.98,13.364 -80.188,20.047 -123.622,20.047c-53.458,0 -103.297,-10.024 -149.516,-30.071c-46.219,-20.046 -86.87,-47.611 -121.951,-82.693c-35.082,-35.082 -62.647,-76.01 -82.693,-122.786c-20.047,-46.776 -30.071,-96.893 -30.071,-150.351l280.656,0c0,28.956 10.023,53.736 30.07,74.34c20.047,20.604 44.548,30.905 73.505,30.905c23.388,0 43.991,-6.96 61.811,-20.882c17.819,-13.921 30.07,-31.462 36.752,-52.623c3.341,-8.909 5.012,-18.933 5.012,-30.07c0,-28.956 -10.024,-52.344 -30.07,-70.164c-20.047,-17.819 -44.549,-26.729 -73.505,-26.729l-177.08,0l0,-280.655l177.08,0c28.956,0 53.458,-8.91 73.505,-26.729c20.046,-17.819 30.07,-41.207 30.07,-70.164c0,-12.251 -1.671,-22.274 -5.012,-30.07c-6.682,-21.16 -18.933,-38.701 -36.752,-52.623c-17.82,-13.921 -38.423,-20.882 -61.811,-20.882c-28.957,0 -53.458,10.023 -73.505,30.07c-20.047,20.047 -30.07,44.549 -30.07,73.505l-280.656,0c0,-52.344 10.024,-101.904 30.071,-148.68c20.046,-46.776 47.611,-87.705 82.693,-122.787c35.081,-35.082 75.732,-62.646 121.951,-82.693c46.219,-20.047 96.058,-30.07 149.516,-30.07c43.434,0 84.642,6.682 123.622,20.047c38.98,13.364 74.618,32.019 106.916,55.964c32.298,23.944 60.14,52.623 83.528,86.034c23.388,33.411 41.208,69.607 53.458,108.587c11.137,34.525 16.706,72.391 16.706,113.598c0,45.662 -7.518,88.54 -22.553,128.634c-15.035,40.093 -35.917,76.289 -62.646,108.587c26.729,32.297 47.611,68.215 62.646,107.751c15.035,39.537 22.553,82.136 22.553,127.799Z" style="fill:#ff3a00;fill-rule:nonzero;"/><g id="Bingo"><path d="M1923.25,1415.12l-1309.81,45.74l14.548,416.586l1309.81,-45.74l-14.547,-416.586Z"/><path d="M838.307,1661.79c14.873,7.098 26.97,17.569 36.29,31.412c9.319,13.843 14.282,29.438 14.888,46.785c0.436,12.478 -1.514,24.277 -5.848,35.397c-4.335,11.121 -10.394,20.854 -18.177,29.201c-7.783,8.346 -17.07,15.069 -27.861,20.169c-10.791,5.1 -22.426,7.867 -34.903,8.303l-2.283,0.08l-104.081,3.634l-11.86,-339.632l106.363,-3.715c12.478,-0.435 24.277,1.514 35.398,5.849c11.12,4.334 20.854,10.393 29.2,18.176c8.347,7.783 15.07,17.07 20.169,27.861c5.1,10.792 7.868,22.426 8.303,34.904c0.606,17.346 -3.257,33.25 -11.588,47.709c-8.331,14.46 -19.668,25.749 -34.01,33.867Z" style="fill:#ff3a00;fill-rule:nonzero;"/><path d="M987.113,1486.11l11.86,339.633l-76.691,2.678l-11.861,-339.633l76.692,-2.678Z" style="fill:#ff3a00;fill-rule:nonzero;"/><path d="M1193.45,1478.9l76.691,-2.678l11.86,339.632l-77.604,2.71l-102.496,-186.554l6.632,189.902l-76.691,2.678l-11.861,-339.633l78.061,-2.726l102.023,186.114l-6.615,-189.445Z" style="fill:#ff3a00;fill-rule:nonzero;"/><path d="M1562.09,1669.42c0.053,1.521 0.106,3.043 0.159,4.565c0.054,1.521 -0.045,3.048 -0.297,4.581l4.448,127.362l-70.757,2.471l-0.606,-17.347c-8.938,5.797 -18.449,10.471 -28.533,14.022c-10.083,3.552 -20.451,5.514 -31.102,5.886l-0.457,0.016c-17.955,0.627 -35.044,-2.281 -51.266,-8.722c-16.222,-6.442 -30.8,-15.988 -43.734,-28.639c-12.315,-12.367 -22.024,-26.425 -29.125,-42.174c-7.101,-15.749 -11.112,-32.444 -12.032,-50.084l-2.455,-70.3c-0.638,-18.26 2.033,-35.569 8.013,-51.927c5.98,-16.358 14.833,-31.141 26.56,-44.348c12.021,-13.522 25.897,-24.061 41.63,-31.619c15.733,-7.557 32.577,-11.65 50.533,-12.277l0.456,-0.016c17.652,-0.616 34.588,2.297 50.81,8.738c16.222,6.442 30.952,15.983 44.191,28.622c12.63,12.662 22.504,27.095 29.621,43.3c7.117,16.206 10.994,33.438 11.632,51.698l-76.692,2.678c-0.287,-8.217 -2.003,-15.927 -5.149,-23.13c-3.147,-7.203 -7.326,-13.456 -12.539,-18.758c-5.213,-5.303 -11.222,-9.435 -18.029,-12.396c-6.807,-2.962 -14.015,-4.31 -21.623,-4.044c-7.608,0.265 -14.628,2.11 -21.06,5.534c-6.431,3.424 -12.062,7.963 -16.892,13.616c-4.83,5.653 -8.563,12.182 -11.199,19.587c-2.637,7.405 -3.811,15.216 -3.524,23.433l2.311,66.192c0.287,8.217 2.004,15.927 5.15,23.13c3.146,7.203 7.326,13.455 12.538,18.758c5.213,5.303 11.147,9.437 17.802,12.404c6.654,2.967 13.786,4.318 21.394,4.052c8.826,-0.308 16.745,-2.565 23.759,-6.771c7.013,-4.206 12.99,-9.747 17.93,-16.623l-42.911,1.498l-2.471,-70.756l132.384,-4.623l1.132,32.411Z" style="fill:#ff3a00;fill-rule:nonzero;"/><path d="M1862.05,1660.32c0.322,17.966 -2.43,35.125 -8.258,51.478c-5.828,16.353 -14.605,31.133 -26.332,44.34c-12.01,13.826 -25.881,24.518 -41.614,32.075c-15.733,7.558 -32.577,11.65 -50.533,12.277l-0.456,0.016c-17.651,0.617 -34.588,-2.296 -50.81,-8.738c-16.221,-6.441 -30.952,-15.982 -44.191,-28.622c-12.315,-12.367 -22.026,-26.502 -29.132,-42.403c-7.106,-15.901 -11.131,-32.976 -12.072,-51.225l-2.774,-79.43c0.958,-16.183 4.459,-31.54 10.503,-46.072c6.043,-14.532 14.189,-27.767 24.437,-39.703c12.325,-13.533 26.277,-24.075 41.858,-31.627c15.581,-7.552 32.349,-11.642 50.305,-12.269l0.456,-0.016c17.956,-0.627 35.044,2.28 51.266,8.722c16.222,6.442 30.8,15.988 43.734,28.638c11.36,11.182 20.485,23.813 27.376,37.894c6.89,14.08 11.378,29.158 13.463,45.235l2.774,79.43Z" style="fill:#ff3a00;fill-rule:nonzero;"/></g></g></svg>